<svg version="1.1" xmlns="http://www.w3.org/2000/svg" viewBox="0 0 32 32">
<title>taiga-icon</title>
<path fill="#a295ae" opacity="0.8" d="M28.036 5.489l-1.495 10.525-10.525-1.495 1.495-10.525 10.525 1.495z"></path>
<path fill="#5d6f6d" opacity="0.8" d="M3.986 26.536l1.495-10.525 10.525 1.495-1.495 10.525-10.525-1.495z"></path>
<path fill="#8cd592" opacity="0.8" d="M5.481 4.008l10.525 1.495-1.495 10.525-10.525-1.495 1.495-10.525z"></path>
<path fill="#665e74" opacity="0.8" d="M26.528 28.033l-10.525-1.495 1.495-10.525 10.525 1.495-1.495 10.525z"></path>
<path fill="#3c3647" opacity="0.8" d="M14.955 31.949l-6.385-8.5 8.5-6.385 6.385 8.5-8.5 6.385z"></path>
<path fill="#837193" opacity="0.8" d="M31.933 17.049l-8.5 6.385-6.385-8.5 8.5-6.385 6.385 8.5z"></path>
<path fill="#a2f4ac" opacity="0.8" d="M17.055 0.069l6.385 8.5-8.5 6.385-6.385-8.5 8.5-6.385z"></path>
<path fill="#7ea685" opacity="0.8" d="M0.058 14.963l8.5-6.385 6.385 8.5-8.5 6.385-6.385-8.5z"></path>
<path fill="#3c3647" d="M15.995 11.968l4.042 4.042-4.042 4.042-4.042-4.042 4.042-4.042z"></path>
</svg>
